G04 #@! TF.GenerationSoftware,KiCad,Pcbnew,(5.1.4)-1*
G04 #@! TF.CreationDate,2019-12-31T16:27:10-06:00*
G04 #@! TF.ProjectId,learning_shield,6c656172-6e69-46e6-975f-736869656c64,rev?*
G04 #@! TF.SameCoordinates,Original*
G04 #@! TF.FileFunction,Soldermask,Top*
G04 #@! TF.FilePolarity,Negative*
%FSLAX46Y46*%
G04 Gerber Fmt 4.6, Leading zero omitted, Abs format (unit mm)*
G04 Created by KiCad (PCBNEW (5.1.4)-1) date 2019-12-31 16:27:10*
%MOMM*%
%LPD*%
G04 APERTURE LIST*
%ADD10C,1.801600*%
%ADD11O,1.828800X2.133600*%
%ADD12C,4.165600*%
%ADD13C,2.101600*%
%ADD14R,2.101600X2.101600*%
%ADD15R,0.851600X1.301600*%
%ADD16R,1.301600X0.851600*%
%ADD17R,1.401600X1.601600*%
%ADD18R,1.601600X1.401600*%
%ADD19O,1.801600X1.801600*%
%ADD20R,1.801600X1.801600*%
%ADD21R,0.901600X1.001600*%
%ADD22R,1.001600X1.301600*%
%ADD23R,1.301600X1.001600*%
%ADD24C,1.101600*%
%ADD25R,1.201600X1.901600*%
%ADD26R,1.901600X1.201600*%
%ADD27R,0.701600X1.601600*%
%ADD28R,1.651600X0.701600*%
G04 APERTURE END LIST*
D10*
X150368000Y-102235000D03*
X155448000Y-99695000D03*
X150368000Y-97155000D03*
D11*
X138938000Y-123825000D03*
X141478000Y-123825000D03*
X144018000Y-123825000D03*
X146558000Y-123825000D03*
X149098000Y-123825000D03*
X151638000Y-123825000D03*
X154178000Y-123825000D03*
X156718000Y-123825000D03*
X161798000Y-123825000D03*
X164338000Y-123825000D03*
X166878000Y-123825000D03*
X169418000Y-123825000D03*
X171958000Y-123825000D03*
X174498000Y-123825000D03*
X129794000Y-75565000D03*
X132334000Y-75565000D03*
X134874000Y-75565000D03*
X137414000Y-75565000D03*
X139954000Y-75565000D03*
X142494000Y-75565000D03*
X145034000Y-75565000D03*
X147574000Y-75565000D03*
X150114000Y-75565000D03*
X152654000Y-75565000D03*
X156718000Y-75565000D03*
X159258000Y-75565000D03*
X161798000Y-75565000D03*
X164338000Y-75565000D03*
X166878000Y-75565000D03*
X169418000Y-75565000D03*
X171958000Y-75565000D03*
X174498000Y-75565000D03*
D12*
X124968000Y-123825000D03*
X177038000Y-118745000D03*
X126238000Y-75565000D03*
X177038000Y-90805000D03*
D13*
X124313000Y-111125000D03*
D14*
X116713000Y-111125000D03*
D15*
X143383000Y-98745000D03*
X143383000Y-100645000D03*
D16*
X153858000Y-90170000D03*
X151958000Y-90170000D03*
D15*
X162433000Y-98745000D03*
X162433000Y-100645000D03*
D16*
X153858000Y-109220000D03*
X151958000Y-109220000D03*
D17*
X132588000Y-101045000D03*
X132588000Y-98345000D03*
D18*
X154258000Y-79375000D03*
X151558000Y-79375000D03*
D17*
X173228000Y-98345000D03*
X173228000Y-101045000D03*
D18*
X151558000Y-120015000D03*
X154258000Y-120015000D03*
D19*
X177800000Y-106045000D03*
X177800000Y-108585000D03*
X177800000Y-111125000D03*
D20*
X177800000Y-113665000D03*
D19*
X171958000Y-114935000D03*
X171958000Y-112395000D03*
D20*
X171958000Y-109855000D03*
D21*
X120523000Y-99965000D03*
X121473000Y-101965000D03*
X119573000Y-101965000D03*
D22*
X145288000Y-100795000D03*
X145288000Y-98595000D03*
D23*
X151808000Y-92075000D03*
X154008000Y-92075000D03*
D22*
X141478000Y-98595000D03*
X141478000Y-100795000D03*
D23*
X151808000Y-88265000D03*
X154008000Y-88265000D03*
D22*
X160528000Y-98595000D03*
X160528000Y-100795000D03*
D23*
X151808000Y-107315000D03*
X154008000Y-107315000D03*
D22*
X164338000Y-98595000D03*
X164338000Y-100795000D03*
D23*
X154008000Y-111125000D03*
X151808000Y-111125000D03*
D24*
X164338000Y-115365000D03*
X164338000Y-111965000D03*
D23*
X163238000Y-117475000D03*
X165438000Y-117475000D03*
D22*
X132588000Y-95715000D03*
X132588000Y-93515000D03*
D23*
X159088000Y-79375000D03*
X156888000Y-79375000D03*
D22*
X173228000Y-93515000D03*
X173228000Y-95715000D03*
D23*
X159088000Y-120015000D03*
X156888000Y-120015000D03*
D22*
X117348000Y-99865000D03*
X117348000Y-102065000D03*
D23*
X119423000Y-97790000D03*
X121623000Y-97790000D03*
D25*
X139518000Y-96595000D03*
X135818000Y-96595000D03*
X139518000Y-102795000D03*
X135818000Y-102795000D03*
D26*
X149808000Y-82605000D03*
X149808000Y-86305000D03*
X156008000Y-82605000D03*
X156008000Y-86305000D03*
D25*
X166298000Y-102795000D03*
X169998000Y-102795000D03*
X166298000Y-96595000D03*
X169998000Y-96595000D03*
D26*
X156008000Y-116785000D03*
X156008000Y-113085000D03*
X149808000Y-116785000D03*
X149808000Y-113085000D03*
D27*
X170688000Y-87155000D03*
X169418000Y-87155000D03*
X168148000Y-87155000D03*
X166878000Y-87155000D03*
X165608000Y-87155000D03*
X164338000Y-87155000D03*
X163068000Y-87155000D03*
X163068000Y-81755000D03*
X164338000Y-81755000D03*
X165608000Y-81755000D03*
X166878000Y-81755000D03*
X168148000Y-81755000D03*
X169418000Y-81755000D03*
X170688000Y-81755000D03*
D28*
X134968000Y-117475000D03*
X134968000Y-116205000D03*
X134968000Y-114935000D03*
X134968000Y-113665000D03*
X140368000Y-113665000D03*
X140368000Y-114935000D03*
X140368000Y-116205000D03*
X140368000Y-117475000D03*
M02*
