M48
; DRILL file {KiCad (5.1.4)-1} date 12/31/2019 4:27:11 PM
; FORMAT={-:-/ absolute / inch / decimal}
; #@! TF.CreationDate,2019-12-31T16:27:11-06:00
; #@! TF.GenerationSoftware,Kicad,Pcbnew,(5.1.4)-1
; #@! TF.FileFunction,Plated,1,2,PTH
FMAT,2
INCH
T1C0.0100
T2C0.0256
T3C0.0394
T4C0.0400
T5C0.1200
%
G90
G05
T1
X4.695Y-3.8
X5.245Y-4.475
X5.245Y-4.625
X5.77Y-3.875
X5.795Y-3.925
X5.845Y-4.275
X5.92Y-4.225
X5.92Y-4.275
X6.095Y-3.05
X6.12Y-3.55
X6.12Y-3.6
X6.22Y-3.6
X6.245Y-4.075
X6.295Y-3.275
X6.32Y-3.35
X6.445Y-3.3
X6.445Y-3.35
X6.52Y-3.125
X6.545Y-3.975
X6.5807Y-4.2243
X6.72Y-3.5
T2
X6.47Y-4.4081
X6.47Y-4.5419
T3
X5.92Y-3.825
X5.92Y-4.025
X6.12Y-3.925
X6.77Y-4.325
X6.77Y-4.425
X6.77Y-4.525
X7.0Y-4.175
X7.0Y-4.275
X7.0Y-4.375
X7.0Y-4.475
X4.595Y-4.375
X4.8942Y-4.375
T4
X5.11Y-2.975
X5.21Y-2.975
X5.31Y-2.975
X5.41Y-2.975
X5.51Y-2.975
X5.61Y-2.975
X5.71Y-2.975
X5.81Y-2.975
X5.91Y-2.975
X6.01Y-2.975
X5.47Y-4.875
X5.57Y-4.875
X5.67Y-4.875
X5.77Y-4.875
X5.87Y-4.875
X5.97Y-4.875
X6.07Y-4.875
X6.17Y-4.875
X6.17Y-2.975
X6.27Y-2.975
X6.37Y-2.975
X6.47Y-2.975
X6.57Y-2.975
X6.67Y-2.975
X6.77Y-2.975
X6.87Y-2.975
X6.37Y-4.875
X6.47Y-4.875
X6.57Y-4.875
X6.67Y-4.875
X6.77Y-4.875
X6.87Y-4.875
T5
X4.92Y-4.875
X4.97Y-2.975
X6.97Y-4.675
X6.97Y-3.575
T0
M30
