G04 #@! TF.GenerationSoftware,KiCad,Pcbnew,(5.1.4)-1*
G04 #@! TF.CreationDate,2019-12-31T16:27:10-06:00*
G04 #@! TF.ProjectId,learning_shield,6c656172-6e69-46e6-975f-736869656c64,rev?*
G04 #@! TF.SameCoordinates,Original*
G04 #@! TF.FileFunction,Paste,Top*
G04 #@! TF.FilePolarity,Positive*
%FSLAX46Y46*%
G04 Gerber Fmt 4.6, Leading zero omitted, Abs format (unit mm)*
G04 Created by KiCad (PCBNEW (5.1.4)-1) date 2019-12-31 16:27:10*
%MOMM*%
%LPD*%
G04 APERTURE LIST*
%ADD10R,0.750000X1.200000*%
%ADD11R,1.200000X0.750000*%
%ADD12R,1.300000X1.500000*%
%ADD13R,1.500000X1.300000*%
%ADD14R,0.800000X0.900000*%
%ADD15R,0.900000X1.200000*%
%ADD16R,1.200000X0.900000*%
%ADD17R,1.100000X1.800000*%
%ADD18R,1.800000X1.100000*%
%ADD19R,0.600000X1.500000*%
%ADD20R,1.550000X0.600000*%
G04 APERTURE END LIST*
D10*
X143383000Y-98745000D03*
X143383000Y-100645000D03*
D11*
X153858000Y-90170000D03*
X151958000Y-90170000D03*
D10*
X162433000Y-98745000D03*
X162433000Y-100645000D03*
D11*
X153858000Y-109220000D03*
X151958000Y-109220000D03*
D12*
X132588000Y-101045000D03*
X132588000Y-98345000D03*
D13*
X154258000Y-79375000D03*
X151558000Y-79375000D03*
D12*
X173228000Y-98345000D03*
X173228000Y-101045000D03*
D13*
X151558000Y-120015000D03*
X154258000Y-120015000D03*
D14*
X120523000Y-99965000D03*
X121473000Y-101965000D03*
X119573000Y-101965000D03*
D15*
X145288000Y-100795000D03*
X145288000Y-98595000D03*
D16*
X151808000Y-92075000D03*
X154008000Y-92075000D03*
D15*
X141478000Y-98595000D03*
X141478000Y-100795000D03*
D16*
X151808000Y-88265000D03*
X154008000Y-88265000D03*
D15*
X160528000Y-98595000D03*
X160528000Y-100795000D03*
D16*
X151808000Y-107315000D03*
X154008000Y-107315000D03*
D15*
X164338000Y-98595000D03*
X164338000Y-100795000D03*
D16*
X154008000Y-111125000D03*
X151808000Y-111125000D03*
X163238000Y-117475000D03*
X165438000Y-117475000D03*
D15*
X132588000Y-95715000D03*
X132588000Y-93515000D03*
D16*
X159088000Y-79375000D03*
X156888000Y-79375000D03*
D15*
X173228000Y-93515000D03*
X173228000Y-95715000D03*
D16*
X159088000Y-120015000D03*
X156888000Y-120015000D03*
D15*
X117348000Y-99865000D03*
X117348000Y-102065000D03*
D16*
X119423000Y-97790000D03*
X121623000Y-97790000D03*
D17*
X139518000Y-96595000D03*
X135818000Y-96595000D03*
X139518000Y-102795000D03*
X135818000Y-102795000D03*
D18*
X149808000Y-82605000D03*
X149808000Y-86305000D03*
X156008000Y-82605000D03*
X156008000Y-86305000D03*
D17*
X166298000Y-102795000D03*
X169998000Y-102795000D03*
X166298000Y-96595000D03*
X169998000Y-96595000D03*
D18*
X156008000Y-116785000D03*
X156008000Y-113085000D03*
X149808000Y-116785000D03*
X149808000Y-113085000D03*
D19*
X170688000Y-87155000D03*
X169418000Y-87155000D03*
X168148000Y-87155000D03*
X166878000Y-87155000D03*
X165608000Y-87155000D03*
X164338000Y-87155000D03*
X163068000Y-87155000D03*
X163068000Y-81755000D03*
X164338000Y-81755000D03*
X165608000Y-81755000D03*
X166878000Y-81755000D03*
X168148000Y-81755000D03*
X169418000Y-81755000D03*
X170688000Y-81755000D03*
D20*
X134968000Y-117475000D03*
X134968000Y-116205000D03*
X134968000Y-114935000D03*
X134968000Y-113665000D03*
X140368000Y-113665000D03*
X140368000Y-114935000D03*
X140368000Y-116205000D03*
X140368000Y-117475000D03*
M02*
